# xmcd
#
# Track frame offsets: 
#        150
#        9043
#        20019
#        29436
#        40584
#        48497
#        58658
#        71528
#        80768
#        93127
#        104222
#        114231
#        123375
#        135832
#        149765
#        161666
#
# Disc length: 2284 seconds
#
# Revision: 0
# Processed by: cddbd v1.5.2PL0 Copyright (c) Steve Scherf et al.
# Submitted via: ExactAudioCopy v1.0b1
#
DISCID=d408ea10
DTITLE=Jim Reeves - Welcome To My World-The Best Of Jim Reeves [CD 2]
DYEAR=2010
DGENRE=Easy Listening
TTITLE0=Why Do I Love You (Melody Of Love)
TTITLE1=Then I'll Stop Loving You
TTITLE2=I'm Gonna Change Everything
TTITLE3=How Long Has It Been
TTITLE4=Trying To Forget
TTITLE5=I Was Just Walking Out The Door
TTITLE6=Distant Drums
TTITLE7=I'd Like To Be
TTITLE8=I Love You Because
TTITLE9=How Can I Write On Paper (What I Feel In My Heart)
TTITLE10=I Heard A Heart Break Last Night
TTITLE11=You're Free To Go
TTITLE12=Not Until The Next Time
TTITLE13=I Fall To Pieces
TTITLE14=Dark Moon
TTITLE15=Oh How I Miss You Tonight ( With Deborah Allen)
EXTD=
EXTT0=
EXTT1=
EXTT2=
EXTT3=
EXTT4=
EXTT5=
EXTT6=
EXTT7=
EXTT8=
EXTT9=
EXTT10=
EXTT11=
EXTT12=
EXTT13=
EXTT14=
EXTT15=
PLAYORDER=
